<svg xmlns="http://www.w3.org/2000/svg" width="128" height="128" viewBox="0 0 128 128" role="img" aria-labelledby="title description">
	<title id="title">Dark Mode Lite icon</title>
	<desc id="description">A crescent moon over a dark browser window.</desc>
	<rect width="128" height="128" rx="28" fill="#101318" />
	<rect x="19" y="25" width="90" height="78" rx="16" fill="#1b2029" stroke="#3a4353" stroke-width="4" />
	<path d="M19 42h90" stroke="#3a4353" stroke-width="4" stroke-linecap="round" />
	<circle cx="34" cy="34" r="4" fill="#ff6b6b" />
	<circle cx="47" cy="34" r="4" fill="#ffd166" />
	<circle cx="60" cy="34" r="4" fill="#60d394" />
	<path d="M77 52c-4.9 4.4-8 10.7-8 17.8 0 13.1 10.6 23.8 23.8 23.8 3.9 0 7.6-.9 10.8-2.6-4.4 8.2-13 13.8-22.9 13.8-14.4 0-26-11.7-26-26.1 0-12.3 8.5-22.6 20-25.3.8-.2 1.6-.3 2.3-.4Z" fill="#f8d66d" />
	<path d="M35 62h26M35 76h20M35 90h30" stroke="#8ea0bc" stroke-width="5" stroke-linecap="round" />
</svg>
