<svg xmlns="http://www.w3.org/2000/svg" width="440" height="280" viewBox="0 0 440 280" role="img" aria-labelledby="title description">
	<title id="title">Dark Mode Lite promotional tile</title>
	<desc id="description">A dark browser preview and popup controls for Dark Mode Lite.</desc>
	<rect width="440" height="280" fill="#101318" />
	<rect x="28" y="34" width="250" height="186" rx="16" fill="#1b2029" stroke="#3a4353" stroke-width="3" />
	<path d="M28 62h250" stroke="#3a4353" stroke-width="3" />
	<circle cx="46" cy="49" r="5" fill="#ff6b6b" />
	<circle cx="62" cy="49" r="5" fill="#ffd166" />
	<circle cx="78" cy="49" r="5" fill="#60d394" />
	<rect x="51" y="91" width="100" height="16" rx="8" fill="#f8d66d" />
	<rect x="51" y="122" width="176" height="10" rx="5" fill="#8ea0bc" />
	<rect x="51" y="144" width="132" height="10" rx="5" fill="#667891" />
	<rect x="51" y="175" width="190" height="22" rx="11" fill="#2a3443" />
	<rect x="303" y="52" width="104" height="176" rx="18" fill="#eef2f7" />
	<rect x="314" y="68" width="82" height="23" rx="11.5" fill="#101318" />
	<circle cx="385" cy="79.5" r="8" fill="#f8d66d" />
	<rect x="316" y="109" width="74" height="13" rx="6.5" fill="#cad3df" />
	<rect x="316" y="135" width="54" height="13" rx="6.5" fill="#cad3df" />
	<rect x="316" y="161" width="66" height="13" rx="6.5" fill="#cad3df" />
	<path d="M342 196h26" stroke="#101318" stroke-width="5" stroke-linecap="round" />
	<text x="34" y="252" fill="#f7f9fc" font-family="Arial, Helvetica, sans-serif" font-size="25" font-weight="700">Dark Mode Lite</text>
	<text x="259" y="252" fill="#8ea0bc" font-family="Arial, Helvetica, sans-serif" font-size="15">site-wide comfort controls</text>
</svg>
