<svg xmlns="http://www.w3.org/2000/svg" width="1280" height="800" viewBox="0 0 1280 800" role="img" aria-labelledby="title description">
	<title id="title">Dark Mode Lite per-site control</title>
	<desc id="description">A dark mode extension popup showing a per-site toggle and saved blocklist.</desc>
	<rect width="1280" height="800" fill="#f7f9fc" />
	<rect x="86" y="82" width="618" height="548" rx="26" fill="#101318" />
	<rect x="126" y="132" width="536" height="74" rx="18" fill="#1b2029" stroke="#3a4353" stroke-width="2" />
	<text x="154" y="177" fill="#f7f9fc" font-family="Arial, Helvetica, sans-serif" font-size="26" font-weight="700">news.example</text>
	<rect x="548" y="151" width="70" height="36" rx="18" fill="#f8d66d" />
	<circle cx="598" cy="169" r="13" fill="#101318" />
	<rect x="126" y="250" width="248" height="112" rx="20" fill="#1b2029" stroke="#3a4353" stroke-width="2" />
	<text x="154" y="292" fill="#f8d66d" font-family="Arial, Helvetica, sans-serif" font-size="22" font-weight="700">Enabled here</text>
	<text x="154" y="326" fill="#a7b4c8" font-family="Arial, Helvetica, sans-serif" font-size="16">One click per-site control</text>
	<rect x="414" y="250" width="248" height="112" rx="20" fill="#1b2029" stroke="#3a4353" stroke-width="2" />
	<text x="442" y="292" fill="#f7f9fc" font-family="Arial, Helvetica, sans-serif" font-size="22" font-weight="700">2 saved sites</text>
	<text x="442" y="326" fill="#a7b4c8" font-family="Arial, Helvetica, sans-serif" font-size="16">Blocklist stays in sync</text>
	<rect x="126" y="408" width="536" height="160" rx="22" fill="#1b2029" stroke="#3a4353" stroke-width="2" />
	<rect x="158" y="448" width="194" height="14" rx="7" fill="#cad3df" />
	<rect x="158" y="486" width="294" height="12" rx="6" fill="#8ea0bc" />
	<rect x="158" y="520" width="232" height="12" rx="6" fill="#667891" />
	<rect x="754" y="82" width="424" height="548" rx="26" fill="#ffffff" stroke="#d6dde8" stroke-width="2" />
	<text x="794" y="145" fill="#101318" font-family="Arial, Helvetica, sans-serif" font-size="30" font-weight="700">Blocklist</text>
	<rect x="794" y="188" width="344" height="74" rx="18" fill="#f7f9fc" stroke="#d6dde8" stroke-width="2" />
	<text x="824" y="233" fill="#101318" font-family="Arial, Helvetica, sans-serif" font-size="20" font-weight="700">shop.example</text>
	<rect x="1044" y="209" width="64" height="22" rx="11" fill="#101318" />
	<rect x="794" y="292" width="344" height="74" rx="18" fill="#f7f9fc" stroke="#d6dde8" stroke-width="2" />
	<text x="824" y="337" fill="#101318" font-family="Arial, Helvetica, sans-serif" font-size="20" font-weight="700">docs.example</text>
	<rect x="1044" y="313" width="64" height="22" rx="11" fill="#101318" />
	<rect x="794" y="434" width="344" height="92" rx="18" fill="#101318" />
	<text x="827" y="489" fill="#f7f9fc" font-family="Arial, Helvetica, sans-serif" font-size="22" font-weight="700">Settings sync with Chrome</text>
	<text x="88" y="718" fill="#101318" font-family="Arial, Helvetica, sans-serif" font-size="38" font-weight="700">Keep dark mode global, then opt out individual sites</text>
</svg>
