<svg xmlns="http://www.w3.org/2000/svg" width="1280" height="800" viewBox="0 0 1280 800" role="img" aria-labelledby="title description">
	<title id="title">Dark Mode Lite popup controls</title>
	<desc id="description">The extension popup with mode selection, sliders, and presets beside a darkened web page.</desc>
	<rect width="1280" height="800" fill="#edf2f7" />
	<rect x="70" y="74" width="760" height="604" rx="22" fill="#111318" />
	<rect x="70" y="74" width="760" height="54" rx="22" fill="#1b2029" />
	<circle cx="102" cy="101" r="8" fill="#ff6b6b" />
	<circle cx="128" cy="101" r="8" fill="#ffd166" />
	<circle cx="154" cy="101" r="8" fill="#60d394" />
	<rect x="112" y="177" width="260" height="28" rx="14" fill="#f8d66d" />
	<rect x="112" y="237" width="574" height="16" rx="8" fill="#8ea0bc" />
	<rect x="112" y="278" width="445" height="16" rx="8" fill="#667891" />
	<rect x="112" y="351" width="618" height="94" rx="20" fill="#1b2029" stroke="#3a4353" stroke-width="2" />
	<rect x="144" y="383" width="210" height="16" rx="8" fill="#cad3df" />
	<rect x="144" y="414" width="150" height="12" rx="6" fill="#667891" />
	<rect x="392" y="383" width="268" height="16" rx="8" fill="#cad3df" />
	<rect x="112" y="486" width="384" height="112" rx="20" fill="#1b2029" stroke="#3a4353" stroke-width="2" />
	<rect x="144" y="522" width="180" height="14" rx="7" fill="#cad3df" />
	<rect x="144" y="554" width="302" height="12" rx="6" fill="#667891" />
	<rect x="872" y="94" width="360" height="612" rx="30" fill="#ffffff" stroke="#d6dde8" stroke-width="2" />
	<text x="902" y="146" fill="#101318" font-family="Arial, Helvetica, sans-serif" font-size="26" font-weight="700">Dark Mode Lite</text>
	<rect x="1134" y="119" width="60" height="31" rx="15.5" fill="#101318" />
	<circle cx="1178" cy="134.5" r="11" fill="#f8d66d" />
	<rect x="902" y="180" width="300" height="82" rx="16" fill="#f7f9fc" stroke="#d6dde8" stroke-width="2" />
	<text x="925" y="214" fill="#101318" font-family="Arial, Helvetica, sans-serif" font-size="18" font-weight="700">example.com</text>
	<text x="925" y="241" fill="#637087" font-family="Arial, Helvetica, sans-serif" font-size="14">Dark mode active on this site</text>
	<rect x="902" y="292" width="88" height="40" rx="14" fill="#101318" />
	<text x="925" y="318" fill="#ffffff" font-family="Arial, Helvetica, sans-serif" font-size="15">Smart</text>
	<rect x="1004" y="292" width="88" height="40" rx="14" fill="#edf2f7" />
	<text x="1024" y="318" fill="#101318" font-family="Arial, Helvetica, sans-serif" font-size="15">Invert</text>
	<rect x="1106" y="292" width="88" height="40" rx="14" fill="#edf2f7" />
	<text x="1131" y="318" fill="#101318" font-family="Arial, Helvetica, sans-serif" font-size="15">Soft</text>
	<text x="902" y="382" fill="#101318" font-family="Arial, Helvetica, sans-serif" font-size="15" font-weight="700">Brightness</text>
	<rect x="902" y="399" width="296" height="8" rx="4" fill="#d6dde8" />
	<rect x="902" y="399" width="220" height="8" rx="4" fill="#101318" />
	<text x="902" y="462" fill="#101318" font-family="Arial, Helvetica, sans-serif" font-size="15" font-weight="700">Contrast</text>
	<rect x="902" y="479" width="296" height="8" rx="4" fill="#d6dde8" />
	<rect x="902" y="479" width="246" height="8" rx="4" fill="#101318" />
	<rect x="902" y="548" width="92" height="36" rx="12" fill="#f8d66d" />
	<text x="922" y="571" fill="#101318" font-family="Arial, Helvetica, sans-serif" font-size="14" font-weight="700">Reading</text>
	<rect x="1010" y="548" width="106" height="36" rx="12" fill="#edf2f7" />
	<text x="1028" y="571" fill="#101318" font-family="Arial, Helvetica, sans-serif" font-size="14">Night Owl</text>
	<text x="88" y="736" fill="#101318" font-family="Arial, Helvetica, sans-serif" font-size="34" font-weight="700">Comfortable dark mode with one compact popup</text>
</svg>
